<svg xmlns="http://www.w3.org/2000/svg"  viewBox="0 0 48 48" width="48px" height="48px"><path fill="#3e2723" d="M27,13.25h12v13.73H27V13.25z"/><path fill="#2196f3" d="M36.75,26c0,0-2.219-0.313-3.75-0.313S29.25,26,29.25,26S21,27.527,21,36h24 C45,27.559,36.75,26,36.75,26"/><path fill="#d19d05" d="M33,29.75c-1.438,0-3.5-3.75-3.5-3.75v-5h7v5C36.5,26,34.437,29.75,33,29.75"/><path fill="#ebb81d" d="M40,18c0,3.727-3.273,7-7,7c-3.73,0-7-3.273-7-7v-6c0-3.727,14-5.727,14,0V18z M33,31 c2.902,0,3.5-5,3.5-5s-1.863,3-3.5,3s-3.5-3-3.5-3S30.098,31,33,31"/><path fill="#0d47a1" d="M33,33c3.551,0,5.066-3.934,5.441-6.469C37.457,26.141,36.75,26,36.75,26s-0.102-0.016-0.25-0.031V26 c0,0-0.598,5-3.5,5s-3.5-5-3.5-5v-0.031C29.352,25.984,29.25,26,29.25,26s-0.707,0.137-1.695,0.527C27.934,29.063,29.445,33,33,33z"/><path fill="#784719" d="M35,17c0-0.551,0.449-1,1-1s1,0.449,1,1s-0.449,1-1,1S35,17.551,35,17 M29,17c0,0.551,0.449,1,1,1 s1-0.449,1-1s-0.449-1-1-1S29,16.449,29,17"/><path fill="#4e342e" d="M33,6c-4.555,0-11,2.09-11,17l5,3.98V16l9-5l3,4v12l5-5c0-3.02-0.254-14.5-8-14.5L35,6H33z"/><path fill="#edbd28" d="M23,23.5c0,0.828-0.672,1.5-1.5,1.5S20,24.328,20,23.5s0.672-1.5,1.5-1.5S23,22.672,23,23.5 M10,23.5 c0-0.828-0.672-1.5-1.5-1.5S7,22.672,7,23.5S7.672,25,8.5,25S10,24.328,10,23.5"/><path fill="#edb405" d="M19,32c0,0,0,4-4,4s-4-4-4-4"/><path fill="#4fc3f7" d="M18.75,32L15,32.77L11.25,32c0,0-8.25,1.527-8.25,10h24C27,33.559,18.75,32,18.75,32"/><path fill="#edb405" d="M15,36c-4,0-4-4-4-4v-4h8v4C19,32,19,36,15,36z"/><path fill="#ffca28" d="M22,19.68c0-5.879-14-3.828-14,0v4.391C8,27.895,11.133,31,15,31s7-3.105,7-6.93V19.68z"/><path fill="#01579b" d="M15,38c3.059,0,5.578-2.293,5.949-5.25c-0.887-0.398-1.605-0.605-1.957-0.691 C18.965,34.238,17.191,36,15,36s-3.965-1.762-3.992-3.945c-0.355,0.086-1.074,0.293-1.957,0.688C9.418,35.703,11.937,38,15,38z"/><path fill="#795548" d="M15,12c-4.859,0-8,4.313-8,8.172V22l2,2v-4l9.199-3L21,20v4l2-2v-0.809 c0-3.219-0.832-6.805-4.801-7.594L17.398,12H15z"/><path fill="#784719" d="M17,23c0-0.551,0.449-1,1-1s1,0.449,1,1s-0.449,1-1,1S17,23.551,17,23 M11,23c0,0.551,0.449,1,1,1 s1-0.449,1-1s-0.449-1-1-1S11,22.449,11,23"/></svg>