<svg xmlns="http://www.w3.org/2000/svg"  viewBox="0 0 48 48" width="48px" height="48px"><path fill="#8BC34A" d="M6 13L24 6 24 28 6 35z"/><path fill="#CDDC39" d="M42 13L24 6 24 28 42 35z"/><path fill="#BF360C" d="M29 30L29 15 36 18 36 33z"/><path fill="#EF6C00" d="M6 35L24 28 42 35 24 42z"/><path fill="#B3E5FC" d="M11 18L19 15 19 23 11 26z"/><path fill="#558B2F" d="M9,16.6v12.3l12-4.5V12.1L9,16.6z M11,18l3-1.1v8L11,26V18z M19,23l-3,1.1v-8l3-1.1V23z"/><path fill="#D84315" d="M20.8,40.7l-4.1-1.6l17.9-7l4.1,1.6L20.8,40.7z M9.3,36.3l4.1,1.6l17.9-7l-4.1-1.6L9.3,36.3z"/><path fill="#F57C00" d="M31 21.5A1 1.5 0 1 0 31 24.5A1 1.5 0 1 0 31 21.5Z"/></svg>