<svg xmlns="http://www.w3.org/2000/svg"  viewBox="0 0 48 48" width="48px" height="48px"><path fill="#7cb342" d="M45,21.706c-0.048-0.041-0.097-0.065-0.149-0.072c-6.948-0.828-6.848-1.511-13.844-1.511	c-7.002,0-7.002,1.52-14.003,1.52c-6.949,0-7.204-2.282-14.003-1.524v6.838c6.388,0.559,35.527,0.415,42-0.307V21.706z"/><rect width="42" height="20" x="3" y="24" fill="#795548"/><circle cx="9" cy="29" r="1" fill="#bcaaa4"/><circle cx="19" cy="29" r="1" fill="#bcaaa4"/><circle cx="29" cy="29" r="1" fill="#bcaaa4"/><circle cx="39" cy="29" r="1" fill="#bcaaa4"/><circle cx="14" cy="34" r="1" fill="#bcaaa4"/><circle cx="24" cy="34" r="1" fill="#bcaaa4"/><circle cx="34" cy="34" r="1" fill="#bcaaa4"/><circle cx="9" cy="39" r="1" fill="#bcaaa4"/><circle cx="19" cy="39" r="1" fill="#bcaaa4"/><circle cx="29" cy="39" r="1" fill="#bcaaa4"/><circle cx="39" cy="39" r="1" fill="#bcaaa4"/></svg>