<svg xmlns="http://www.w3.org/2000/svg"  viewBox="0 0 48 48" width="48px" height="48px"><path fill="#ff9800" d="M13,10c0,2.2,1.8,4,4,4s4-1.8,4-4s-1.8-4-4-4S13,7.8,13,10z M17.1,8c1.1,0.1,1.9,1.1,1.9,2.2 c0,0.5-0.2,1-0.6,1.3c-0.4,0.4-1,0.5-1.6,0.5c-1.1-0.1-1.8-1-1.8-2.1c0-0.5,0.2-1.1,0.6-1.4C16,8.1,16.5,8,17.1,8z"/><path fill="#ff9800" d="M21,10c0.3,0.1-0.3,0-0.3,0c0,1.3-0.7,2.5-1.7,3.3c0.1,0.2,0.2,0.3,0.2,0.4c0.5,0.9,2.7,4.6,2.9,4.8 l1.5,3.1L32.7,33l0.5-0.5c0.7-0.8,0.8-1.7,0.8-2.7c0-1.9-1-3.4-1-3.4L25.8,16c0-0.1-0.1-0.1-0.2-0.2C22.4,14.1,21.8,12.1,21,10z"/><path fill="#a5d6a7" d="M6 22H42V42H6z"/><path fill="#388e3c" d="M6,22v20h36V22H6z M8,40V24h32v16H8z"/><path fill="#388e3c" d="M13 30A2 2 0 1 0 13 34 2 2 0 1 0 13 30zM35 30A2 2 0 1 0 35 34 2 2 0 1 0 35 30zM24 26A6 6 0 1 0 24 38 6 6 0 1 0 24 26z"/><path fill="#1b5e20" d="M23 37H25V42H23zM23 29H25V35H23zM23 22H25V27H23z"/><path fill="#fbc02d" d="M32,6c-2.2,0-4,1.8-4,4s1.8,4,4,4s4-1.8,4-4S34.2,6,32,6z M33.4,8.4C33.8,8.8,34,9.3,34,9.9 c0,1.1-0.8,2-1.8,2.1c-0.6,0.1-1.2-0.1-1.6-0.5c-0.4-0.3-0.6-0.8-0.6-1.3c0-1.1,0.9-2.1,1.9-2.2C32.5,8,33,8.1,33.4,8.4z"/><path fill="#fbc02d" d="M23.4,15.9c-0.1,0-0.1,0.1-0.2,0.2L16,26.4c0,0.1-1,1.6-1,3.4c0,1,0.2,1.9,0.8,2.7l0.5,0.5l10.6-14.6 c0.1-0.2,2.4-3.9,2.9-4.8c0,0,0.1-0.2,0.2-0.4c-1-0.7-1.7-1.9-1.7-3.3c0,0-0.6,0.1-0.3,0C27.2,12.1,26.6,14.1,23.4,15.9z"/><path fill="#ffa000" d="M24.3 17.599999999999998A0.8 0.8 0 1 0 24.3 19.2A0.8 0.8 0 1 0 24.3 17.599999999999998Z"/><path fill="#388e3c" d="M8.5 37c-.565 0-1.081.195-1.5.511V41h3.488C10.805 40.581 11 40.065 11 39.499 11 38.119 9.881 37 8.5 37zM7 26.489C7.419 26.805 7.935 27 8.5 27c1.381 0 2.5-1.119 2.5-2.5 0-.566-.195-1.081-.511-1.5H7V26.489zM41 37.511C40.581 37.195 40.065 37 39.5 37c-1.381 0-2.5 1.119-2.5 2.499 0 .566.195 1.082.512 1.501H41V37.511zM39.5 27c.565 0 1.081-.195 1.5-.511V23h-3.489C37.195 23.419 37 23.935 37 24.5 37 25.881 38.119 27 39.5 27z"/></svg>