<svg xmlns="http://www.w3.org/2000/svg"  viewBox="0 0 48 48" width="48px" height="48px"><path fill="#eceff1" d="M28,22c-0.551,0-1-0.448-1-1v-7c0-0.552,0.449-1,1-1h16c0.551,0,1,0.448,1,1v7c0,0.552-0.449,1-1,1H28z"/><path fill="#cfd8dc" d="M44,14v7H28v-7H44 M44,12H28c-1.104,0-2,0.895-2,2v7c0,1.105,0.896,2,2,2h16c1.104,0,2-0.895,2-2v-7C46,12.895,45.104,12,44,12L44,12z"/><path fill="#eceff1" d="M28,35c-0.551,0-1-0.448-1-1v-7c0-0.552,0.449-1,1-1h16c0.551,0,1,0.448,1,1v7c0,0.552-0.449,1-1,1H28z"/><path fill="#cfd8dc" d="M44,27v7H28v-7H44 M44,25H28c-1.104,0-2,0.895-2,2v7c0,1.105,0.896,2,2,2h16c1.104,0,2-0.895,2-2v-7C46,25.895,45.104,25,44,25L44,25z"/><path fill="#ffa000" d="M16 36L13 39 11 39 8 36 8 23 16 23 16 28 14.667 29.458 16 31 16 32 14.667 33.5 16 35z"/><path fill="#d68600" d="M11 23H13V39H11z"/><path fill="#ffa000" d="M21.328,12.307c-0.343-1.223-1.299-2.149-2.488-2.444C17.255,9.47,14.781,9,12,9S6.745,9.47,5.159,9.863c-1.188,0.295-2.145,1.221-2.487,2.444C2.337,13.504,2,15.166,2,17c0,1.836,0.337,3.496,0.672,4.693c0.342,1.223,1.299,2.149,2.487,2.444C6.745,24.53,9.219,25,12,25s5.255-0.47,6.84-0.863c1.189-0.295,2.145-1.221,2.488-2.444C21.663,20.496,22,18.836,22,17C22,15.166,21.663,13.504,21.328,12.307 M15.333,15H8.667c-0.737,0-1.333-0.666-1.333-1.435v-0.87C7.333,12.312,9.423,12,12,12s4.667,0.312,4.667,0.696v0.87C16.667,14.334,16.07,15,15.333,15"/></svg>