<svg xmlns="http://www.w3.org/2000/svg"  viewBox="0 0 48 48" width="48px" height="48px"><path fill="#FF9800" d="M39.875 38.166h-2c0-.84.328-1.593.676-2.391.364-.836.74-1.699.74-2.709 0-1.009-.275-1.934-.594-3.004-.386-1.294-.822-2.76-.822-4.646h2c0 1.595.376 2.856.739 4.076.332 1.118.677 2.273.677 3.574 0 1.427-.503 2.58-.906 3.508C40.111 37.201 39.875 37.743 39.875 38.166zM36.191 38.166h-2c0-.609.224-1.423.482-2.364.271-.989.58-2.11.58-2.877 0-.754-.22-1.856-.453-3.023-.285-1.432-.609-3.055-.609-4.485h2c0 1.233.29 2.688.571 4.094.252 1.268.491 2.464.491 3.415 0 1.037-.346 2.296-.651 3.407C36.41 37.032 36.191 37.826 36.191 38.166zM32.438 38.166h-2c0-.378.113-1.111.313-2.374.176-1.115.396-2.502.396-3.009 0-.539-.16-1.871-.314-3.16-.194-1.614-.395-3.282-.395-4.207h2c0 .805.202 2.485.38 3.969.177 1.47.329 2.74.329 3.398 0 .664-.214 2.015-.421 3.321C32.598 36.916 32.438 37.927 32.438 38.166zM28.684 38.17l-2-.004c0-.174.043-.804.148-2.308.087-1.238.206-2.935.206-3.217 0-.269-.083-1.788-.156-3.128-.098-1.776-.198-3.614-.198-4.098h2c0 .429.104 2.32.195 3.988.099 1.807.159 2.93.159 3.237 0 .327-.083 1.542-.211 3.356C28.754 37.047 28.687 37.987 28.684 38.17zM10.125 38.166h-2c0-.431-.241-.991-.52-1.64-.399-.929-.896-2.084-.896-3.46 0-1.301.345-2.456.677-3.574.363-1.22.739-2.481.739-4.076h2c0 1.887-.437 3.353-.822 4.646-.318 1.07-.594 1.995-.594 3.004 0 .964.373 1.831.733 2.67C9.794 36.552 10.125 37.323 10.125 38.166zM13.809 38.166h-2c0-.34-.219-1.134-.411-1.834-.306-1.111-.651-2.37-.651-3.407 0-.951.239-2.147.491-3.415.281-1.406.571-2.86.571-4.094h2c0 1.431-.324 3.054-.609 4.485-.233 1.167-.453 2.27-.453 3.023 0 .767.309 1.888.58 2.877C13.585 36.743 13.809 37.557 13.809 38.166zM17.563 38.166h-2c0-.239-.16-1.25-.288-2.062-.207-1.307-.421-2.657-.421-3.321 0-.658.152-1.929.329-3.398.178-1.483.38-3.164.38-3.969h2c0 .925-.2 2.593-.395 4.207-.154 1.289-.314 2.621-.314 3.16 0 .507.22 1.894.396 3.009C17.449 37.055 17.563 37.788 17.563 38.166zM21.316 38.166h-2c-.003-.179-.07-1.119-.144-2.168-.128-1.814-.211-3.029-.211-3.356 0-.308.061-1.431.159-3.237.092-1.668.195-3.56.195-3.988h2c0 .483-.101 2.321-.198 4.098-.073 1.34-.156 2.859-.156 3.128 0 .282.119 1.979.206 3.217C21.273 37.362 21.316 37.992 21.316 38.166zM23 25.416H25V38.166H23z"/><path fill="#BF360C" d="M40,42H8v-4h32V42z"/><path fill="#FF5722" d="M39.584,27H8.416C7.084,27,6,25.916,6,24.584s1.084-2.416,2.416-2.416c1.333,0,2.418,1.084,2.418,2.416h-2c0-0.226-0.191-0.416-0.418-0.416C8.19,24.168,8,24.358,8,24.584S8.19,25,8.416,25h31.168C39.81,25,40,24.81,40,24.584s-0.19-0.416-0.416-0.416c-0.227,0-0.418,0.19-0.418,0.416h-2c0-1.332,1.085-2.416,2.418-2.416c1.332,0,2.416,1.084,2.416,2.416S40.916,27,39.584,27z"/><g><path fill="#BBDEFB" d="M25 6H34V15H25zM14 6H23V15H14zM25 17H34V25H25zM14 17H23V25H14z"/></g></svg>