<svg xmlns="http://www.w3.org/2000/svg"  viewBox="0 0 40 39" width="48px" height="48px"><g data-name="Слой 2"><path fill="#546e7a" d="M29,14H22a1,1,0,0,0-1,1v4a1,1,0,0,0,1,1h1V16h5v4h1a1,1,0,0,0,1-1V15A1,1,0,0,0,29,14Z"/><path fill="#ff9800" d="M13,18H38V36H13Z"/><path fill="#78909c" d="M15,17h3v1H15Z"/><path fill="#78909c" d="M33,17h3v1H33Z"/><path fill="#d67c05" d="M19,18h2V36H19Z"/><path fill="#d67c05" d="M30,18h2V36H30Z"/><rect width="2" height="21" x="7" y="15" fill="#90a4ae"/><path fill="#455a64" d="M8,16a8,8,0,1,1,8-8A8.009,8.009,0,0,1,8,16ZM8,2a6,6,0,1,0,6,6A6.006,6.006,0,0,0,8,2Z"/><rect width="36" height="3" x="4" y="36" fill="#455a64"/><path fill="#455a64" d="M8.712,8.708A1,1,0,0,1,7.3,7.293C7.688,6.9,11,5,11,5S9.1,8.317,8.712,8.708Z"/></g></svg>