<svg xmlns="http://www.w3.org/2000/svg"  viewBox="0 0 48 48" width="48px" height="48px"><path fill="#512DA8" d="M33.9,12.1H14.2L17.6,7c0.4-0.6,1-0.9,1.7-0.9h9.6c0.7,0,1.3,0.3,1.7,0.9L33.9,12.1z"/><path fill="#8667C4" d="M14,11H8V9.2C8,8.5,8.5,8,9.2,8h3.6C13.5,8,14,8.5,14,9.2V11z"/><path fill="#5E35B1" d="M40,42H8c-2.2,0-4-1.8-4-4V14c0-2.2,1.8-4,4-4h32c2.2,0,4,1.8,4,4v24C44,40.2,42.2,42,40,42z"/><path fill="#512DA8" d="M24 14A12 12 0 1 0 24 38A12 12 0 1 0 24 14Z"/><path fill="#B388FF" d="M24 17A9 9 0 1 0 24 35A9 9 0 1 0 24 17Z"/><path fill="#C7A7FF" d="M29,23c-1.2-1.4-3-2.2-4.8-2.2c-1.8,0-3.6,0.8-4.8,2.2c-0.5,0.5-0.4,1.3,0.1,1.8c0.5,0.5,1.3,0.4,1.8-0.1c1.5-1.7,4.3-1.7,5.8,0c0.3,0.3,0.6,0.4,1,0.4c0.3,0,0.6-0.1,0.9-0.3C29.4,24.4,29.5,23.5,29,23z"/><path fill="#8667C4" d="M11 12A2 1.5 0 1 0 11 15A2 1.5 0 1 0 11 12Z"/></svg>