<svg xmlns="http://www.w3.org/2000/svg"  viewBox="0 0 48 48" width="48px" height="48px"><path fill="#ff3d00" d="M17,4c-4.97,0-9,4.053-9,9.051C8,20,17,30,17,30s9-11,9-16.949C26,8.053,21.97,4,17,4z M17,18 c-2.762,0-5-2.239-5-5s2.239-5,5-5s5,2.239,5,5S19.762,18,17,18z"/><path fill="#1e88e5" d="M39 4A4 4 0 1 0 39 12 4 4 0 1 0 39 4zM39 36A4 4 0 1 0 39 44 4 4 0 1 0 39 36z"/><path fill="#90caf9" d="M39 14A2 2 0 1 0 39 18 2 2 0 1 0 39 14zM39 20A2 2 0 1 0 39 24 2 2 0 1 0 39 20zM39 26A2 2 0 1 0 39 30 2 2 0 1 0 39 26zM32 26A2 2 0 1 0 32 30 2 2 0 1 0 32 26zM26 26A2 2 0 1 0 26 30 2 2 0 1 0 26 26zM7 26A2 2 0 1 0 7 30 2 2 0 1 0 7 26zM7 32A2 2 0 1 0 7 36 2 2 0 1 0 7 32zM7 38A2 2 0 1 0 7 42 2 2 0 1 0 7 38zM13 38A2 2 0 1 0 13 42 2 2 0 1 0 13 38zM19 38A2 2 0 1 0 19 42 2 2 0 1 0 19 38zM25 38A2 2 0 1 0 25 42 2 2 0 1 0 25 38zM31 38A2 2 0 1 0 31 42 2 2 0 1 0 31 38z"/></svg>